<svg width="60" height="60" xmlns="http://www.w3.org/2000/svg" xmlns:xlink="http://www.w3.org/1999/xlink"><defs><circle id="a" cx="30" cy="30" r="30"/></defs><g fill="none" fill-rule="evenodd"><mask id="b" fill="#fff"><use xlink:href="#a"/></mask><use fill="#FFF" xlink:href="#a"/><path fill="#4E4E4E" fill-rule="nonzero" mask="url(#b)" d="M29.074 6.727V2.992l2.309 3.735h1.16V1h-1.074v3.824L29.125 1H28v5.727z"/><path d="M30.363 57.926c.498 0 .913-.07 1.246-.21a1.686 1.686 0 0 0 1.047-1.56c0-.362-.076-.666-.228-.912a1.608 1.608 0 0 0-.633-.582c-.27-.142-.686-.28-1.248-.412-.563-.133-.917-.26-1.063-.383a.44.44 0 0 1-.172-.347c0-.149.062-.267.184-.356.19-.138.453-.207.79-.207.325 0 .569.064.732.193.162.13.268.34.318.635l1.156-.05c-.018-.527-.209-.947-.572-1.262-.363-.315-.904-.473-1.623-.473-.44 0-.816.066-1.127.2-.311.132-.55.325-.715.58a1.472 1.472 0 0 0-.248.818c0 .453.176.837.527 1.152.25.224.685.413 1.305.566.482.12.79.204.926.25.198.07.336.153.416.248.08.096.119.21.119.346 0 .211-.094.395-.283.553-.189.157-.47.236-.842.236-.352 0-.63-.088-.838-.265-.207-.177-.344-.455-.412-.832L28 55.96c.076.64.307 1.128.695 1.463.388.334.944.502 1.668.502z" fill="#4E4E4E" fill-rule="nonzero" mask="url(#b)" transform="rotate(180 30.328 54.963)"/><path fill="#4E4E4E" fill-rule="nonzero" mask="url(#b)" transform="rotate(-90 5.758 29.863)" d="m4.621 32.727 1.137-4.282 1.14 4.282h1.227L9.515 27H8.353l-.88 4-1.003-4H5.094l-1.047 3.934L3.184 27H2l1.367 5.727z"/><path fill="#4E4E4E" fill-rule="nonzero" mask="url(#b)" transform="rotate(90 55.178 29.863)" d="M57.355 32.727v-.965h-3.199v-1.559h2.875v-.965h-2.875v-1.27h3.09V27H53v5.727z"/></g></svg>